<svg xmlns="http://www.w3.org/2000/svg" xmlns:xlink="http://www.w3.org/1999/xlink" viewBox="0,0,256,256" width="32px" height="32px"><g transform="translate(25.6,25.6) scale(0.8,0.8)"><g fill="none" fill-rule="nonzero" stroke="none" stroke-width="none" stroke-linecap="butt" stroke-linejoin="none" stroke-miterlimit="10" stroke-dasharray="" stroke-dashoffset="0" font-family="none" font-weight="none" font-size="none" text-anchor="none" style="mix-blend-mode: normal"><path transform="scale(8,8)" d="M27.33594,9.49609v0.00195c0.887,1.516 0.887,11.48191 0,13.00391c-0.884,1.518 -9.57389,6.49805 -11.33789,6.49805c-1.769,0 -10.45884,-4.98295 -11.33984,-6.50195c-0.878,-1.515 -0.878,-11.47314 0,-12.99414c0.877,-1.52 9.56684,-6.50391 11.33984,-6.50391c1.758,0 10.44689,4.97909 11.33789,6.49609z" id="strokeMainSVG" fill="#dddddd" stroke="#dddddd" stroke-width="4" stroke-linejoin="round"></path><g transform="scale(8,8)" fill="#000000" stroke="none" stroke-width="1" stroke-linejoin="miter"><path d="M15.99805,3c-1.773,0 -10.46284,4.98391 -11.33984,6.50391c-0.878,1.521 -0.878,11.47914 0,12.99414c0.881,1.519 9.57084,6.50195 11.33984,6.50195c1.764,0 10.45389,-4.98005 11.33789,-6.49805c0.887,-1.522 0.887,-11.48791 0,-13.00391v-0.00195c-0.891,-1.517 -9.57989,-6.49609 -11.33789,-6.49609zM15.99609,5.01172c1.697,0.353 8.42161,4.20505 9.59961,5.49805c0.54,1.641 0.539,9.33451 0,10.97852c-1.17,1.291 -7.90061,5.148 -9.59961,5.5c-1.698,-0.35 -8.4237,-4.20505 -9.5957,-5.49805c-0.535,-1.648 -0.535,-9.33447 0,-10.98047c1.169,-1.293 7.8967,-5.14805 9.5957,-5.49805zM13,9l-2,2h1v10h2v-4h4v4h-1l2,2l2,-2h-1v-9h-2v3h-4v-4h1z"></path></g></g></g></svg>